<svg xmlns="http://www.w3.org/2000/svg" width="1268" height="288" viewBox="0 0 1268 288"><title>Agent Music — Federation Score</title><desc>Deterministic visual score of the federation composition. 7 voices, 45 events, 107 BPM, loop 18.0s × 3.</desc><style>.bg { fill: #fafafa; } .grid { stroke: #e5e7eb; stroke-width: 1; } .bar { stroke: #d1d5db; stroke-width: 1; } .beat { stroke: #e5e7eb; stroke-width: 0.5; stroke-dasharray: 2,2; } .label { font-family: 'SF Mono', 'Cascadia Code', 'Consolas', monospace; font-size: 11px; fill: #1a1a1a; } .header { font-family: 'SF Mono', 'Cascadia Code', 'Consolas', monospace; font-size: 12px; fill: #1a1a1a; } .connector { stroke: #6b7280; stroke-width: 1; opacity: 0.4; fill: none; } .flow-call { fill: #374151; } .flow-response { fill: #9ca3af; } </style><rect class="bg" x="0" y="0" width="1268" height="288" /><line class="bar" x1="220" y1="80" x2="220" y2="248" /><line class="beat" x1="252" y1="80" x2="252" y2="248" /><line class="beat" x1="284" y1="80" x2="284" y2="248" /><line class="beat" x1="316" y1="80" x2="316" y2="248" /><line class="bar" x1="348" y1="80" x2="348" y2="248" /><line class="beat" x1="380" y1="80" x2="380" y2="248" /><line class="beat" x1="412" y1="80" x2="412" y2="248" /><line class="beat" x1="444" y1="80" x2="444" y2="248" /><line class="bar" x1="476" y1="80" x2="476" y2="248" /><line class="beat" x1="508" y1="80" x2="508" y2="248" /><line class="beat" x1="540" y1="80" x2="540" y2="248" /><line class="beat" x1="572" y1="80" x2="572" y2="248" /><line class="bar" x1="604" y1="80" x2="604" y2="248" /><line class="beat" x1="636" y1="80" x2="636" y2="248" /><line class="beat" x1="668" y1="80" x2="668" y2="248" /><line class="beat" x1="700" y1="80" x2="700" y2="248" /><line class="bar" x1="732" y1="80" x2="732" y2="248" /><line class="beat" x1="764" y1="80" x2="764" y2="248" /><line class="beat" x1="796" y1="80" x2="796" y2="248" /><line class="beat" x1="828" y1="80" x2="828" y2="248" /><line class="bar" x1="860" y1="80" x2="860" y2="248" /><line class="beat" x1="892" y1="80" x2="892" y2="248" /><line class="beat" x1="924" y1="80" x2="924" y2="248" /><line class="beat" x1="956" y1="80" x2="956" y2="248" /><line class="bar" x1="988" y1="80" x2="988" y2="248" /><line class="beat" x1="1020" y1="80" x2="1020" y2="248" /><line class="beat" x1="1052" y1="80" x2="1052" y2="248" /><line class="beat" x1="1084" y1="80" x2="1084" y2="248" /><line class="bar" x1="1116" y1="80" x2="1116" y2="248" /><line class="beat" x1="1148" y1="80" x2="1148" y2="248" /><line class="beat" x1="1180" y1="80" x2="1180" y2="248" /><line class="beat" x1="1212" y1="80" x2="1212" y2="248" /><line class="bar" x1="1244" y1="80" x2="1244" y2="248" /><text class="label" x="212" y="95" text-anchor="end">agent-internet (relay, sine)</text><text class="label" x="212" y="119" text-anchor="end">agent-city (governance, triangle)</text><text class="label" x="212" y="143" text-anchor="end">steward (execution, sine)</text><text class="label" x="212" y="167" text-anchor="end">steward-test (sandbox, sine)</text><text class="label" x="212" y="191" text-anchor="end">agent-world (generic, triangle)</text><text class="label" x="212" y="215" text-anchor="end">steward-federation (generic, triangle)</text><text class="label" x="212" y="239" text-anchor="end">steward-protocol (generic, triangle)</text><polygon id="evt-000000" data-event-type="flow_call" data-voice-id="kimeisele/agent-internet" data-start-tick="0" data-duration-ticks="2" data-event-id="evt-000000" data-flow-id="flow-0000" data-pair-id="flow-0000-pair-0002" class="flow-call" points="232,88 224,92 232,96" /><polygon id="evt-000001" data-event-type="flow_response" data-voice-id="kimeisele/steward" data-start-tick="2" data-duration-ticks="2" data-event-id="evt-000001" data-flow-id="flow-0000" data-pair-id="flow-0000-pair-0002" class="flow-response" points="240,136 248,140 240,144" /><rect id="evt-000002" data-event-type="node_activity" data-voice-id="kimeisele/steward" data-start-tick="5" data-duration-ticks="4" data-event-id="evt-000002" x="260" y="130" width="32" height="20" fill="#059669" /><rect id="evt-000003" data-event-type="node_activity" data-voice-id="kimeisele/agent-internet" data-start-tick="15" data-duration-ticks="4" data-event-id="evt-000003" x="340" y="82" width="32" height="20" fill="#2563eb" /><polygon id="evt-000004" data-event-type="flow_call" data-voice-id="kimeisele/agent-internet" data-start-tick="16" data-duration-ticks="2" data-event-id="evt-000004" data-flow-id="flow-0002" data-pair-id="flow-0002-pair-0001" class="flow-call" points="360,88 352,92 360,96" /><polygon id="evt-000005" data-event-type="flow_response" data-voice-id="kimeisele/steward-test" data-start-tick="18" data-duration-ticks="2" data-event-id="evt-000005" data-flow-id="flow-0002" data-pair-id="flow-0002-pair-0001" class="flow-response" points="368,160 376,164 368,168" /><polygon id="evt-000006" data-event-type="flow_call" data-voice-id="kimeisele/agent-internet" data-start-tick="24" data-duration-ticks="2" data-event-id="evt-000006" data-flow-id="flow-0003" data-pair-id="flow-0003-pair-0001" class="flow-call" points="424,88 416,92 424,96" /><rect id="evt-000007" data-event-type="node_activity" data-voice-id="kimeisele/steward" data-start-tick="24" data-duration-ticks="4" data-event-id="evt-000007" x="412" y="130" width="32" height="20" fill="#059669" /><rect id="evt-000008" data-event-type="node_activity" data-voice-id="kimeisele/steward-test" data-start-tick="24" data-duration-ticks="1" data-event-id="evt-000008" x="412" y="154" width="8" height="20" fill="#9ca3af" /><polygon id="evt-000009" data-event-type="flow_response" data-voice-id="kimeisele/agent-city" data-start-tick="26" data-duration-ticks="2" data-event-id="evt-000009" data-flow-id="flow-0003" data-pair-id="flow-0003-pair-0001" class="flow-response" points="432,112 440,116 432,120" /><polygon id="evt-000010" data-event-type="flow_call" data-voice-id="kimeisele/agent-internet" data-start-tick="32" data-duration-ticks="2" data-event-id="evt-000010" data-flow-id="flow-0004" data-pair-id="flow-0004-pair-0001" class="flow-call" points="488,88 480,92 488,96" /><polygon id="evt-000011" data-event-type="flow_call" data-voice-id="kimeisele/agent-internet" data-start-tick="32" data-duration-ticks="2" data-event-id="evt-000011" data-flow-id="flow-0000" data-pair-id="flow-0000-pair-0003" class="flow-call" points="488,88 480,92 488,96" /><rect id="evt-000012" data-event-type="node_activity" data-voice-id="kimeisele/agent-internet" data-start-tick="32" data-duration-ticks="4" data-event-id="evt-000012" x="476" y="82" width="32" height="20" fill="#2563eb" /><polygon id="evt-000013" data-event-type="flow_response" data-voice-id="kimeisele/agent-world" data-start-tick="34" data-duration-ticks="2" data-event-id="evt-000013" data-flow-id="flow-0004" data-pair-id="flow-0004-pair-0001" class="flow-response" points="496,184 504,188 496,192" /><polygon id="evt-000014" data-event-type="flow_response" data-voice-id="kimeisele/steward" data-start-tick="34" data-duration-ticks="2" data-event-id="evt-000014" data-flow-id="flow-0000" data-pair-id="flow-0000-pair-0003" class="flow-response" points="496,136 504,140 496,144" /><polygon id="evt-000015" data-event-type="flow_call" data-voice-id="kimeisele/agent-internet" data-start-tick="40" data-duration-ticks="2" data-event-id="evt-000015" data-flow-id="flow-0005" data-pair-id="flow-0005-pair-0001" class="flow-call" points="552,88 544,92 552,96" /><polygon id="evt-000016" data-event-type="flow_response" data-voice-id="kimeisele/steward-federation" data-start-tick="42" data-duration-ticks="2" data-event-id="evt-000016" data-flow-id="flow-0005" data-pair-id="flow-0005-pair-0001" class="flow-response" points="560,208 568,212 560,216" /><rect id="evt-000017" data-event-type="node_activity" data-voice-id="kimeisele/steward" data-start-tick="43" data-duration-ticks="4" data-event-id="evt-000017" x="564" y="130" width="32" height="20" fill="#059669" /><polygon id="evt-000018" data-event-type="flow_call" data-voice-id="kimeisele/agent-internet" data-start-tick="48" data-duration-ticks="2" data-event-id="evt-000018" data-flow-id="flow-0006" data-pair-id="flow-0006-pair-0001" class="flow-call" points="616,88 608,92 616,96" /><rect id="evt-000019" data-event-type="node_activity" data-voice-id="kimeisele/agent-internet" data-start-tick="49" data-duration-ticks="4" data-event-id="evt-000019" x="612" y="82" width="32" height="20" fill="#2563eb" /><polygon id="evt-000020" data-event-type="flow_response" data-voice-id="kimeisele/steward-protocol" data-start-tick="50" data-duration-ticks="2" data-event-id="evt-000020" data-flow-id="flow-0006" data-pair-id="flow-0006-pair-0001" class="flow-response" points="624,232 632,236 624,240" /><rect id="evt-000021" data-event-type="node_activity" data-voice-id="kimeisele/steward" data-start-tick="62" data-duration-ticks="4" data-event-id="evt-000021" x="716" y="130" width="32" height="20" fill="#059669" /><polygon id="evt-000022" data-event-type="flow_call" data-voice-id="kimeisele/agent-internet" data-start-tick="64" data-duration-ticks="2" data-event-id="evt-000022" data-flow-id="flow-0000" data-pair-id="flow-0000-pair-0000" class="flow-call" points="744,88 736,92 744,96" /><rect id="evt-000023" data-event-type="node_activity" data-voice-id="kimeisele/agent-internet" data-start-tick="66" data-duration-ticks="4" data-event-id="evt-000023" x="748" y="82" width="32" height="20" fill="#2563eb" /><polygon id="evt-000024" data-event-type="flow_response" data-voice-id="kimeisele/steward" data-start-tick="66" data-duration-ticks="2" data-event-id="evt-000024" data-flow-id="flow-0000" data-pair-id="flow-0000-pair-0000" class="flow-response" points="752,136 760,140 752,144" /><rect id="evt-000025" data-event-type="node_activity" data-voice-id="kimeisele/steward" data-start-tick="72" data-duration-ticks="4" data-event-id="evt-000025" x="796" y="130" width="32" height="20" fill="#059669" /><polygon id="evt-000026" data-event-type="flow_call" data-voice-id="kimeisele/agent-internet" data-start-tick="80" data-duration-ticks="2" data-event-id="evt-000026" data-flow-id="flow-0002" data-pair-id="flow-0002-pair-0000" class="flow-call" points="872,88 864,92 872,96" /><polygon id="evt-000027" data-event-type="flow_response" data-voice-id="kimeisele/steward-test" data-start-tick="82" data-duration-ticks="2" data-event-id="evt-000027" data-flow-id="flow-0002" data-pair-id="flow-0002-pair-0000" class="flow-response" points="880,160 888,164 880,168" /><rect id="evt-000028" data-event-type="node_activity" data-voice-id="kimeisele/agent-internet" data-start-tick="83" data-duration-ticks="4" data-event-id="evt-000028" x="884" y="82" width="32" height="20" fill="#2563eb" /><polygon id="evt-000029" data-event-type="flow_call" data-voice-id="kimeisele/agent-internet" data-start-tick="88" data-duration-ticks="2" data-event-id="evt-000029" data-flow-id="flow-0003" data-pair-id="flow-0003-pair-0000" class="flow-call" points="936,88 928,92 936,96" /><rect id="evt-000030" data-event-type="node_activity" data-voice-id="kimeisele/steward-test" data-start-tick="89" data-duration-ticks="1" data-event-id="evt-000030" x="932" y="154" width="8" height="20" fill="#9ca3af" /><polygon id="evt-000031" data-event-type="flow_response" data-voice-id="kimeisele/agent-city" data-start-tick="90" data-duration-ticks="2" data-event-id="evt-000031" data-flow-id="flow-0003" data-pair-id="flow-0003-pair-0000" class="flow-response" points="944,112 952,116 944,120" /><rect id="evt-000032" data-event-type="node_activity" data-voice-id="kimeisele/steward" data-start-tick="91" data-duration-ticks="4" data-event-id="evt-000032" x="948" y="130" width="32" height="20" fill="#059669" /><rect id="evt-000033" data-event-type="node_activity" data-voice-id="kimeisele/agent-internet" data-start-tick="92" data-duration-ticks="4" data-event-id="evt-000033" x="956" y="82" width="32" height="20" fill="#2563eb" /><polygon id="evt-000034" data-event-type="flow_call" data-voice-id="kimeisele/agent-internet" data-start-tick="96" data-duration-ticks="2" data-event-id="evt-000034" data-flow-id="flow-0004" data-pair-id="flow-0004-pair-0000" class="flow-call" points="1000,88 992,92 1000,96" /><polygon id="evt-000035" data-event-type="flow_call" data-voice-id="kimeisele/agent-internet" data-start-tick="96" data-duration-ticks="2" data-event-id="evt-000035" data-flow-id="flow-0000" data-pair-id="flow-0000-pair-0001" class="flow-call" points="1000,88 992,92 1000,96" /><polygon id="evt-000036" data-event-type="flow_response" data-voice-id="kimeisele/agent-world" data-start-tick="98" data-duration-ticks="2" data-event-id="evt-000036" data-flow-id="flow-0004" data-pair-id="flow-0004-pair-0000" class="flow-response" points="1008,184 1016,188 1008,192" /><polygon id="evt-000037" data-event-type="flow_response" data-voice-id="kimeisele/steward" data-start-tick="98" data-duration-ticks="2" data-event-id="evt-000037" data-flow-id="flow-0000" data-pair-id="flow-0000-pair-0001" class="flow-response" points="1008,136 1016,140 1008,144" /><polygon id="evt-000038" data-event-type="flow_call" data-voice-id="kimeisele/agent-internet" data-start-tick="104" data-duration-ticks="2" data-event-id="evt-000038" data-flow-id="flow-0005" data-pair-id="flow-0005-pair-0000" class="flow-call" points="1064,88 1056,92 1064,96" /><polygon id="evt-000039" data-event-type="flow_response" data-voice-id="kimeisele/steward-federation" data-start-tick="106" data-duration-ticks="2" data-event-id="evt-000039" data-flow-id="flow-0005" data-pair-id="flow-0005-pair-0000" class="flow-response" points="1072,208 1080,212 1072,216" /><rect id="evt-000040" data-event-type="node_activity" data-voice-id="kimeisele/agent-internet" data-start-tick="109" data-duration-ticks="4" data-event-id="evt-000040" x="1092" y="82" width="32" height="20" fill="#2563eb" /><rect id="evt-000041" data-event-type="node_activity" data-voice-id="kimeisele/steward" data-start-tick="110" data-duration-ticks="4" data-event-id="evt-000041" x="1100" y="130" width="32" height="20" fill="#059669" /><polygon id="evt-000042" data-event-type="flow_call" data-voice-id="kimeisele/agent-internet" data-start-tick="112" data-duration-ticks="2" data-event-id="evt-000042" data-flow-id="flow-0006" data-pair-id="flow-0006-pair-0000" class="flow-call" points="1128,88 1120,92 1128,96" /><polygon id="evt-000043" data-event-type="flow_response" data-voice-id="kimeisele/steward-protocol" data-start-tick="114" data-duration-ticks="2" data-event-id="evt-000043" data-flow-id="flow-0006" data-pair-id="flow-0006-pair-0000" class="flow-response" points="1136,232 1144,236 1136,240" /><rect id="evt-000044" data-event-type="node_activity" data-voice-id="kimeisele/agent-internet" data-start-tick="126" data-duration-ticks="4" data-event-id="evt-000044" x="1228" y="82" width="32" height="20" fill="#2563eb" /><line class="connector" data-flow-id="flow-0000" data-pair-id="flow-0000-pair-0002" x1="228" y1="92" x2="244" y2="140" /><line class="connector" data-flow-id="flow-0002" data-pair-id="flow-0002-pair-0001" x1="356" y1="92" x2="372" y2="164" /><line class="connector" data-flow-id="flow-0003" data-pair-id="flow-0003-pair-0001" x1="420" y1="92" x2="436" y2="116" /><line class="connector" data-flow-id="flow-0004" data-pair-id="flow-0004-pair-0001" x1="484" y1="92" x2="500" y2="188" /><line class="connector" data-flow-id="flow-0000" data-pair-id="flow-0000-pair-0003" x1="484" y1="92" x2="500" y2="140" /><line class="connector" data-flow-id="flow-0005" data-pair-id="flow-0005-pair-0001" x1="548" y1="92" x2="564" y2="212" /><line class="connector" data-flow-id="flow-0006" data-pair-id="flow-0006-pair-0001" x1="612" y1="92" x2="628" y2="236" /><line class="connector" data-flow-id="flow-0000" data-pair-id="flow-0000-pair-0000" x1="740" y1="92" x2="756" y2="140" /><line class="connector" data-flow-id="flow-0002" data-pair-id="flow-0002-pair-0000" x1="868" y1="92" x2="884" y2="164" /><line class="connector" data-flow-id="flow-0003" data-pair-id="flow-0003-pair-0000" x1="932" y1="92" x2="948" y2="116" /><line class="connector" data-flow-id="flow-0004" data-pair-id="flow-0004-pair-0000" x1="996" y1="92" x2="1012" y2="188" /><line class="connector" data-flow-id="flow-0000" data-pair-id="flow-0000-pair-0001" x1="996" y1="92" x2="1012" y2="140" /><line class="connector" data-flow-id="flow-0005" data-pair-id="flow-0005-pair-0000" x1="1060" y1="92" x2="1076" y2="212" /><line class="connector" data-flow-id="flow-0006" data-pair-id="flow-0006-pair-0000" x1="1124" y1="92" x2="1140" y2="236" /><text class="header" x="220" y="20">Agent Music — Federation Score</text><text class="header" x="220" y="36">Tempo: 107 BPM  ·  Root: MIDI 55  ·  Scale: minor_pentatonic</text><text class="header" x="220" y="52">7 voices  ·  45 events  ·  3× loop = 54.1 s</text><text class="header" x="220" y="68">Snapshot: deb231adcdc0ce5a…  ·  Composition: 3789614a89ee3269…</text><text class="label" x="220" y="264" fill="#6b7280">█ note (activity)</text><text class="label" x="400" y="264" fill="#374151">► flow call</text><text class="label" x="580" y="264" fill="#9ca3af">◄ flow response</text><text class="label" x="760" y="264" fill="#6b7280">╌ flow connector</text></svg>